<svg width="74" height="74" viewBox="0 0 74 74" fill="none" xmlns="http://www.w3.org/2000/svg">
<g filter="url(#filter0_d_56_417)">
<rect x="6.66675" y="5" width="60" height="60" rx="30" fill="white"/>
<rect x="6.66675" y="5" width="60" height="60" rx="30" stroke="#E59182" stroke-width="5"/>
<path d="M41.3334 25.6096C42.2084 25.3751 43.2759 25.4404 43.9234 25.6096C45.3824 25.9934 46.4464 26.6526 47.0828 27.5696C47.8195 28.6295 47.9467 29.9828 47.4631 31.5911C46.472 34.8811 42.4464 36.9228 42.2084 37.0418C42.2289 37.6624 42.3718 38.6459 42.5894 39.2981C42.8968 40.2168 43.1797 41.1583 42.986 42.1623C42.7918 43.1668 42.3129 43.9263 41.6636 44.4425C41.0674 44.9203 40.3295 45.1623 39.472 45.1623C39.1664 45.1618 38.8613 45.1314 38.5609 45.0743M30.2501 36.4584C30.2501 36.4584 26.8609 34.8799 25.871 31.5911C25.3869 29.9834 25.5146 28.6313 26.2508 27.5696C26.8884 26.6532 27.9506 25.9946 29.4101 25.6096C30.0582 25.4404 30.6783 25.3535 31.2546 25.3535M30.5418 36.7501C30.8334 37.3334 30.5814 38.3811 30.2734 39.3004C29.966 40.2198 29.6487 41.1683 29.8768 42.1646C30.1043 43.1598 30.5494 43.928 31.1974 44.4443C31.7948 44.9214 32.3093 45.2084 33.1668 45.2084C33.4719 45.2073 34.3334 44.9168 34.3334 44.9168" stroke="#D18578" stroke-width="2" stroke-linecap="round" stroke-linejoin="round"/>
<path d="M36.3752 23.3334C39.4359 23.3334 41.9168 24.8751 41.9168 29.3855C41.9168 33.8964 36.3752 39.6667 36.3752 39.6667C36.3752 39.6667 30.8335 33.8958 30.8335 29.3855C30.8335 24.8745 33.3144 23.3334 36.3752 23.3334Z" stroke="#D18578" stroke-width="2" stroke-linecap="round" stroke-linejoin="round"/>
<path d="M36.6667 45.6336C35.4942 45.6336 34.4967 45.2474 33.8259 44.6594C33.0518 43.9792 32.6575 43.0109 32.6575 41.7824C32.6575 40.7581 33.2116 39.9035 33.7466 39.0757C34.1269 38.4883 34.6531 37.3316 34.6531 37.3316C34.6531 37.3316 34.9301 36.3772 34.8846 35.7566C34.8001 34.6109 33.6876 33.7482 33.5068 33.1567C33.2881 32.4217 33.3417 31.9737 33.6731 31.7497C33.7751 31.6797 34.166 31.6563 34.166 31.6563C34.166 31.6563 34.0925 30.5795 34.1386 30.2242C34.194 29.7984 34.4162 29.1906 34.9389 29.1462C35.3006 29.1153 35.5864 29.1696 35.7719 29.5587C35.8314 29.6847 35.8728 29.8369 35.9306 30.0481C36.1248 30.7517 36.3699 31.4403 36.6638 32.1084C36.9584 31.4404 37.2041 30.7518 37.3988 30.0481C37.4571 29.8375 37.498 29.6847 37.5581 29.5581C37.7436 29.169 38.0306 29.1159 38.3922 29.1468C38.8326 29.1853 39.136 29.7996 39.1914 30.2242C39.2381 30.5795 39.2287 31.0526 39.164 31.6557H39.1914C39.3168 31.6557 39.5566 31.6791 39.6592 31.7491C39.9911 31.9731 40.0104 32.6352 39.8243 33.1567C39.5834 33.8333 38.5351 34.4942 38.4167 35.5833C38.3415 36.2699 38.4721 36.6742 38.6798 37.3322C38.9108 38.0642 39.2048 38.4889 39.5863 39.0757C40.1218 39.9029 40.6754 40.7587 40.6754 41.7824C40.6754 43.0109 40.2822 43.9787 39.5064 44.6588C38.8344 45.2468 37.8392 45.633 36.6667 45.6336Z" stroke="#D18578" stroke-width="2" stroke-linecap="round" stroke-linejoin="round"/>
</g>
<defs>
<filter id="filter0_d_56_417" x="0.166748" y="0.5" width="73" height="73" filterUnits="userSpaceOnUse" color-interpolation-filters="sRGB">
<feFlood flood-opacity="0" result="BackgroundImageFix"/>
<feColorMatrix in="SourceAlpha" type="matrix" values="0 0 0 0 0 0 0 0 0 0 0 0 0 0 0 0 0 0 127 0" result="hardAlpha"/>
<feOffset dy="2"/>
<feGaussianBlur stdDeviation="2"/>
<feComposite in2="hardAlpha" operator="out"/>
<feColorMatrix type="matrix" values="0 0 0 0 0 0 0 0 0 0 0 0 0 0 0 0 0 0 0.25 0"/>
<feBlend mode="normal" in2="BackgroundImageFix" result="effect1_dropShadow_56_417"/>
<feBlend mode="normal" in="SourceGraphic" in2="effect1_dropShadow_56_417" result="shape"/>
</filter>
</defs>
</svg>
