<svg width="74" height="73" viewBox="0 0 74 73" fill="none" xmlns="http://www.w3.org/2000/svg">
<g filter="url(#filter0_d_330_190)">
<rect x="7" y="4.5" width="60" height="60" rx="30" fill="white"/>
<rect x="7" y="4.5" width="60" height="60" rx="30" stroke="#7E76A1" stroke-width="5"/>
<g clip-path="url(#clip0_330_190)">
<path d="M47.5493 31C46.7344 30.9945 45.9579 31.1258 45.2305 31.3773L43.4313 28.375H47.9376C48.6649 28.375 49.2501 27.7898 49.2501 27.0625V25.3125C49.2501 24.5852 48.6649 24 47.9376 24H45.4602C45.0883 24 44.7329 24.1586 44.4868 24.432L42.436 26.7125L41.1891 24.6344C40.9485 24.2406 40.5219 24 40.0626 24H35.6876C35.2063 24 34.8126 24.3938 34.8126 24.875V25.75C34.8126 26.2313 35.2063 26.625 35.6876 26.625H39.3188L40.3688 28.375H31.9633C30.9954 27.1117 29.5079 26.1875 26.5001 26.1875H23.4649C22.7266 26.1875 22.1087 26.7891 22.1251 27.5273C22.136 28.2383 22.7212 28.8125 23.4376 28.8125H26.5001C27.8399 28.8125 28.6165 29.4086 29.1141 30.1688L28.4962 31.2898C27.7852 31.0766 27.0251 30.9781 26.2376 31.0055C22.5571 31.1367 19.5876 34.15 19.5001 37.8359C19.4126 41.7789 22.579 45 26.5001 45C29.7594 45 32.4993 42.7688 33.2813 39.75H37.886C38.6352 39.75 39.2313 39.1266 39.1985 38.3773C39.0837 35.8016 40.1555 33.2531 42.2719 31.5414L42.9555 32.6789C41.4462 33.975 40.4891 35.9 40.5055 38.0492C40.5329 41.8555 43.6337 44.9672 47.4399 45C51.3555 45.0383 54.5383 41.8555 54.5055 37.9398C54.4673 34.1336 51.3555 31.0273 47.5493 31ZM26.5001 42.375C24.0883 42.375 22.1251 40.4117 22.1251 38C22.1251 35.5883 24.0883 33.625 26.5001 33.625C26.7297 33.625 26.9594 33.6414 27.1837 33.6797L24.9141 37.8031C24.4329 38.6781 25.0672 39.75 26.0626 39.75H30.5087C29.8305 41.2922 28.2883 42.375 26.5001 42.375ZM51.8696 38.2406C51.7493 40.4609 49.9555 42.2547 47.7407 42.3695C45.2196 42.5063 43.1251 40.4938 43.1251 38C43.1251 36.8297 43.5844 35.7688 44.3337 34.9867L47.0352 39.493C47.2813 39.9086 47.8227 40.0398 48.2383 39.7938L48.9876 39.3453C49.4032 39.0992 49.5344 38.5578 49.2883 38.1422L46.6305 33.718C46.9149 33.6578 47.2048 33.6305 47.5001 33.6305C49.9938 33.625 52.0008 35.7195 51.8696 38.2406Z" fill="#7E76A1"/>
</g>
</g>
<defs>
<filter id="filter0_d_330_190" x="0.5" y="0" width="73" height="73" filterUnits="userSpaceOnUse" color-interpolation-filters="sRGB">
<feFlood flood-opacity="0" result="BackgroundImageFix"/>
<feColorMatrix in="SourceAlpha" type="matrix" values="0 0 0 0 0 0 0 0 0 0 0 0 0 0 0 0 0 0 127 0" result="hardAlpha"/>
<feOffset dy="2"/>
<feGaussianBlur stdDeviation="2"/>
<feComposite in2="hardAlpha" operator="out"/>
<feColorMatrix type="matrix" values="0 0 0 0 0 0 0 0 0 0 0 0 0 0 0 0 0 0 0.25 0"/>
<feBlend mode="normal" in2="BackgroundImageFix" result="effect1_dropShadow_330_190"/>
<feBlend mode="normal" in="SourceGraphic" in2="effect1_dropShadow_330_190" result="shape"/>
</filter>
<clipPath id="clip0_330_190">
<rect width="35" height="28" fill="white" transform="translate(19.5 20.5)"/>
</clipPath>
</defs>
</svg>
