<svg width="74" height="73" viewBox="0 0 74 73" fill="none" xmlns="http://www.w3.org/2000/svg">
<g filter="url(#filter0_d_331_73)">
<rect x="7" y="4.5" width="60" height="60" rx="30" fill="white"/>
<rect x="7" y="4.5" width="60" height="60" rx="30" stroke="#7E76A1" stroke-width="5"/>
<g clip-path="url(#clip0_331_73)">
<path d="M41.3914 25.1666C42.0413 25.1666 42.6784 25.3476 43.2312 25.6893C43.7841 26.0309 44.2309 26.5197 44.5216 27.101L46.1351 30.3268C46.4198 30.2101 46.7032 30.0923 46.9786 29.9558C47.2555 29.8175 47.576 29.7948 47.8697 29.8929C48.1633 29.9909 48.4059 30.2015 48.5443 30.4785C48.6826 30.7554 48.7052 31.0759 48.6072 31.3695C48.5092 31.6632 48.2985 31.9058 48.0216 32.0441C47.4453 32.3311 47.1816 32.4198 47.1816 32.4198L48.2969 34.6516C48.5408 35.1381 48.6667 35.6736 48.6667 36.2173V39.1666C48.6675 39.6592 48.5639 40.1463 48.3628 40.5959C48.1617 41.0455 47.8677 41.4475 47.5001 41.7753V43.25C47.5001 43.7141 47.3157 44.1592 46.9875 44.4874C46.6593 44.8156 46.2142 45 45.7501 45C45.286 45 44.8408 44.8156 44.5126 44.4874C44.1845 44.1592 44.0001 43.7141 44.0001 43.25V42.6666H30.0001V43.25C30.0001 43.7141 29.8157 44.1592 29.4875 44.4874C29.1593 44.8156 28.7142 45 28.2501 45C27.786 45 27.3408 44.8156 27.0126 44.4874C26.6845 44.1592 26.5001 43.7141 26.5001 43.25V41.7753C25.7838 41.1336 25.3334 40.2026 25.3334 39.1666V36.2173C25.3336 35.6742 25.4603 35.1385 25.7033 34.6528L26.8186 32.4198C26.536 32.3026 26.2567 32.1777 25.9809 32.0453C25.8434 31.9771 25.7207 31.8824 25.6199 31.7666C25.519 31.6509 25.442 31.5164 25.3932 31.3708C25.3444 31.2253 25.3249 31.0715 25.3356 30.9184C25.3464 30.7653 25.3873 30.6158 25.4559 30.4785C25.5973 30.203 25.8413 29.9941 26.1353 29.897C26.4293 29.7999 26.7498 29.8222 27.0274 29.9593C27.3016 30.0923 27.5828 30.2125 27.8651 30.3268L29.4786 27.101C29.7693 26.5197 30.2161 26.0309 30.769 25.6893C31.3218 25.3476 31.9589 25.1666 32.6088 25.1666H41.3914ZM44.9731 33.2213C42.9897 33.8478 40.1676 34.5 37.0001 34.5C33.8326 34.5 31.0104 33.8466 29.0271 33.2213L27.7904 35.6946C27.7091 35.8569 27.6668 36.0358 27.6668 36.2173V39.1666C27.6668 39.476 27.7897 39.7728 28.0085 39.9916C28.2273 40.2104 28.524 40.3333 28.8334 40.3333H45.1667C45.4762 40.3333 45.7729 40.2104 45.9917 39.9916C46.2105 39.7728 46.3334 39.476 46.3334 39.1666V36.2173C46.3332 36.0362 46.2909 35.8577 46.2097 35.6958L44.9731 33.2213ZM31.7501 35.6666C32.2142 35.6666 32.6593 35.851 32.9875 36.1792C33.3157 36.5074 33.5001 36.9525 33.5001 37.4166C33.5001 37.8808 33.3157 38.3259 32.9875 38.6541C32.6593 38.9823 32.2142 39.1666 31.7501 39.1666C31.286 39.1666 30.8408 38.9823 30.5126 38.6541C30.1845 38.3259 30.0001 37.8808 30.0001 37.4166C30.0001 36.9525 30.1845 36.5074 30.5126 36.1792C30.8408 35.851 31.286 35.6666 31.7501 35.6666ZM42.2501 35.6666C42.7142 35.6666 43.1593 35.851 43.4875 36.1792C43.8157 36.5074 44.0001 36.9525 44.0001 37.4166C44.0001 37.8808 43.8157 38.3259 43.4875 38.6541C43.1593 38.9823 42.7142 39.1666 42.2501 39.1666C41.786 39.1666 41.3408 38.9823 41.0126 38.6541C40.6845 38.3259 40.5001 37.8808 40.5001 37.4166C40.5001 36.9525 40.6845 36.5074 41.0126 36.1792C41.3408 35.851 41.786 35.6666 42.2501 35.6666ZM41.3914 27.5H32.6088C32.3921 27.5001 32.1798 27.5605 31.9956 27.6744C31.8114 27.7884 31.6626 27.9514 31.5658 28.1451L30.0841 31.105C31.8901 31.6475 34.3238 32.1666 37.0001 32.1666C39.6764 32.1666 42.1101 31.6475 43.9149 31.105L42.4344 28.1451C42.3376 27.9514 42.1887 27.7884 42.0045 27.6744C41.8203 27.5605 41.608 27.5001 41.3914 27.5Z" fill="#7E76A1"/>
</g>
</g>
<defs>
<filter id="filter0_d_331_73" x="0.5" y="0" width="73" height="73" filterUnits="userSpaceOnUse" color-interpolation-filters="sRGB">
<feFlood flood-opacity="0" result="BackgroundImageFix"/>
<feColorMatrix in="SourceAlpha" type="matrix" values="0 0 0 0 0 0 0 0 0 0 0 0 0 0 0 0 0 0 127 0" result="hardAlpha"/>
<feOffset dy="2"/>
<feGaussianBlur stdDeviation="2"/>
<feComposite in2="hardAlpha" operator="out"/>
<feColorMatrix type="matrix" values="0 0 0 0 0 0 0 0 0 0 0 0 0 0 0 0 0 0 0.25 0"/>
<feBlend mode="normal" in2="BackgroundImageFix" result="effect1_dropShadow_331_73"/>
<feBlend mode="normal" in="SourceGraphic" in2="effect1_dropShadow_331_73" result="shape"/>
</filter>
<clipPath id="clip0_331_73">
<rect width="28" height="28" fill="white" transform="translate(23 20.5)"/>
</clipPath>
</defs>
</svg>
