<svg width="74" height="73" viewBox="0 0 74 73" fill="none" xmlns="http://www.w3.org/2000/svg">
<g filter="url(#filter0_d_56_264)">
<rect x="7" y="4.5" width="60" height="60" rx="30" fill="#7E76A1"/>
<rect x="7" y="4.5" width="60" height="60" rx="30" stroke="white" stroke-width="5"/>
<path d="M26.5 41.5V35.6666C26.5 35.0478 26.7458 34.4543 27.1834 34.0167C27.621 33.5791 28.2145 33.3333 28.8333 33.3333V29.8333C28.8333 28.5956 29.325 27.4086 30.2002 26.5335C31.0753 25.6583 32.2623 25.1666 33.5 25.1666H40.5C41.7377 25.1666 42.9247 25.6583 43.7998 26.5335C44.675 27.4086 45.1667 28.5956 45.1667 29.8333V33.3333C45.7855 33.3333 46.379 33.5791 46.8166 34.0167C47.2542 34.4543 47.5 35.0478 47.5 35.6666V41.5C47.5 42.1188 47.2542 42.7123 46.8166 43.1499C46.379 43.5875 45.7855 43.8333 45.1667 43.8333C44.5478 43.8333 43.9543 43.5875 43.5168 43.1499C43.0792 42.7123 42.8333 42.1188 42.8333 41.5H31.1667C31.1667 42.1188 30.9208 42.7123 30.4832 43.1499C30.0457 43.5875 29.4522 43.8333 28.8333 43.8333C28.2145 43.8333 27.621 43.5875 27.1834 43.1499C26.7458 42.7123 26.5 42.1188 26.5 41.5ZM33.5 27.5C32.8812 27.5 32.2877 27.7458 31.8501 28.1834C31.4125 28.621 31.1667 29.2145 31.1667 29.8333V33.3333H42.8333V29.8333C42.8333 29.2145 42.5875 28.621 42.1499 28.1834C41.7123 27.7458 41.1188 27.5 40.5 27.5H33.5ZM30 38C30.3094 38 30.6062 37.877 30.825 37.6582C31.0437 37.4395 31.1667 37.1427 31.1667 36.8333C31.1667 36.5239 31.0437 36.2271 30.825 36.0083C30.6062 35.7895 30.3094 35.6666 30 35.6666C29.6906 35.6666 29.3938 35.7895 29.175 36.0083C28.9562 36.2271 28.8333 36.5239 28.8333 36.8333C28.8333 37.1427 28.9562 37.4395 29.175 37.6582C29.3938 37.877 29.6906 38 30 38ZM44 38C44.3094 38 44.6062 37.877 44.825 37.6582C45.0438 37.4395 45.1667 37.1427 45.1667 36.8333C45.1667 36.5239 45.0438 36.2271 44.825 36.0083C44.6062 35.7895 44.3094 35.6666 44 35.6666C43.6906 35.6666 43.3938 35.7895 43.175 36.0083C42.9562 36.2271 42.8333 36.5239 42.8333 36.8333C42.8333 37.1427 42.9562 37.4395 43.175 37.6582C43.3938 37.877 43.6906 38 44 38Z" fill="white"/>
</g>
<defs>
<filter id="filter0_d_56_264" x="0.5" y="0" width="73" height="73" filterUnits="userSpaceOnUse" color-interpolation-filters="sRGB">
<feFlood flood-opacity="0" result="BackgroundImageFix"/>
<feColorMatrix in="SourceAlpha" type="matrix" values="0 0 0 0 0 0 0 0 0 0 0 0 0 0 0 0 0 0 127 0" result="hardAlpha"/>
<feOffset dy="2"/>
<feGaussianBlur stdDeviation="2"/>
<feComposite in2="hardAlpha" operator="out"/>
<feColorMatrix type="matrix" values="0 0 0 0 0 0 0 0 0 0 0 0 0 0 0 0 0 0 0.25 0"/>
<feBlend mode="normal" in2="BackgroundImageFix" result="effect1_dropShadow_56_264"/>
<feBlend mode="normal" in="SourceGraphic" in2="effect1_dropShadow_56_264" result="shape"/>
</filter>
</defs>
</svg>
