<svg width="74" height="73" viewBox="0 0 74 73" fill="none" xmlns="http://www.w3.org/2000/svg">
<g filter="url(#filter0_d_330_186)">
<rect x="7" y="4.5" width="60" height="60" rx="30" fill="white"/>
<rect x="7" y="4.5" width="60" height="60" rx="30" stroke="#7E76A1" stroke-width="5"/>
<path d="M28.8333 44.4167C27.7504 44.4167 26.7118 43.9865 25.946 43.2207C25.1802 42.4549 24.75 41.4163 24.75 40.3334C24.75 39.2504 25.1802 38.2118 25.946 37.446C26.7118 36.6802 27.7504 36.25 28.8333 36.25C29.9163 36.25 30.9549 36.6802 31.7207 37.446C32.4865 38.2118 32.9167 39.2504 32.9167 40.3334C32.9167 41.4163 32.4865 42.4549 31.7207 43.2207C30.9549 43.9865 29.9163 44.4167 28.8333 44.4167ZM28.8333 34.5C27.2862 34.5 25.8025 35.1146 24.7085 36.2086C23.6146 37.3025 23 38.7863 23 40.3334C23 41.8805 23.6146 43.3642 24.7085 44.4581C25.8025 45.5521 27.2862 46.1667 28.8333 46.1667C30.3804 46.1667 31.8642 45.5521 32.9581 44.4581C34.0521 43.3642 34.6667 41.8805 34.6667 40.3334C34.6667 38.7863 34.0521 37.3025 32.9581 36.2086C31.8642 35.1146 30.3804 34.5 28.8333 34.5ZM40.2667 32.1667H45.1667V30.0667H41.4333L39.17 26.2517C38.8317 25.6684 38.1667 25.2834 37.4667 25.2834C36.9183 25.2834 36.4167 25.505 36.0667 25.8667L31.75 30.1717C31.3883 30.5334 31.1667 31 31.1667 31.5834C31.1667 32.3184 31.5517 32.9367 32.1583 33.2984L36.0667 35.6667V41.5H38.1667V33.9167L35.5417 31.9917L38.2483 29.25M45.1667 44.4167C44.0837 44.4167 43.0451 43.9865 42.2793 43.2207C41.5135 42.4549 41.0833 41.4163 41.0833 40.3334C41.0833 39.2504 41.5135 38.2118 42.2793 37.446C43.0451 36.6802 44.0837 36.25 45.1667 36.25C46.2496 36.25 47.2882 36.6802 48.054 37.446C48.8198 38.2118 49.25 39.2504 49.25 40.3334C49.25 41.4163 48.8198 42.4549 48.054 43.2207C47.2882 43.9865 46.2496 44.4167 45.1667 44.4167ZM45.1667 34.5C43.6196 34.5 42.1358 35.1146 41.0419 36.2086C39.9479 37.3025 39.3333 38.7863 39.3333 40.3334C39.3333 41.8805 39.9479 43.3642 41.0419 44.4581C42.1358 45.5521 43.6196 46.1667 45.1667 46.1667C45.9327 46.1667 46.6913 46.0158 47.399 45.7227C48.1067 45.4295 48.7498 44.9998 49.2915 44.4581C49.8331 43.9165 50.2628 43.2734 50.556 42.5657C50.8491 41.8579 51 41.0994 51 40.3334C51 39.5673 50.8491 38.8088 50.556 38.101C50.2628 37.3933 49.8331 36.7502 49.2915 36.2086C48.7498 35.6669 48.1067 35.2372 47.399 34.9441C46.6913 34.6509 45.9327 34.5 45.1667 34.5ZM41.6667 26.1C42.8333 26.1 43.7667 25.1667 43.7667 24C43.7667 22.8334 42.8333 21.9 41.6667 21.9C40.5 21.9 39.5667 22.8334 39.5667 24C39.5667 25.1667 40.5 26.1 41.6667 26.1Z" fill="#7E76A1"/>
</g>
<defs>
<filter id="filter0_d_330_186" x="0.5" y="0" width="73" height="73" filterUnits="userSpaceOnUse" color-interpolation-filters="sRGB">
<feFlood flood-opacity="0" result="BackgroundImageFix"/>
<feColorMatrix in="SourceAlpha" type="matrix" values="0 0 0 0 0 0 0 0 0 0 0 0 0 0 0 0 0 0 127 0" result="hardAlpha"/>
<feOffset dy="2"/>
<feGaussianBlur stdDeviation="2"/>
<feComposite in2="hardAlpha" operator="out"/>
<feColorMatrix type="matrix" values="0 0 0 0 0 0 0 0 0 0 0 0 0 0 0 0 0 0 0.25 0"/>
<feBlend mode="normal" in2="BackgroundImageFix" result="effect1_dropShadow_330_186"/>
<feBlend mode="normal" in="SourceGraphic" in2="effect1_dropShadow_330_186" result="shape"/>
</filter>
</defs>
</svg>
