<svg width="74" height="74" viewBox="0 0 74 74" fill="none" xmlns="http://www.w3.org/2000/svg">
<g filter="url(#filter0_d_56_384)">
<rect x="7" y="5" width="60" height="60" rx="30" fill="#E59182"/>
<rect x="7" y="5" width="60" height="60" rx="30" stroke="white" stroke-width="5"/>
<g clip-path="url(#clip0_56_384)">
<path d="M32.3557 37.7801C29.3701 37.7801 26.3866 37.7801 23.401 37.7801C22.4453 37.7801 22.2718 37.5275 22.5772 36.6004C23.9261 32.5031 27.2984 29.981 31.6198 29.7811C34.3879 29.6537 36.9364 30.2293 39.2036 31.8945C40.9436 33.1732 41.796 34.99 42.4155 36.9673C42.5473 37.3869 42.3935 37.6373 41.9849 37.7274C41.7652 37.7757 41.5345 37.7977 41.3105 37.7999C38.327 37.8043 35.3414 37.8021 32.3579 37.8021C32.3579 37.7955 32.3579 37.7889 32.3579 37.7801H32.3557Z" fill="white"/>
<path d="M43.3381 45.5683C43.259 43.5252 43.1887 41.5567 43.1009 39.5904C43.0767 39.0412 43.0943 38.5601 43.404 38.035C43.6259 37.6593 43.6106 37.0464 43.4963 36.5894C43.0284 34.7176 41.9958 33.1644 40.6051 31.8396C40.436 31.6793 40.2844 31.5013 40.0186 31.2201H50.4826C50.4936 31.4354 50.5133 31.6551 50.5133 31.8748C50.5133 36.1456 50.5133 40.4143 50.5133 44.6851C50.5133 45.5661 50.4035 45.6232 49.4984 45.5947C48.2131 45.5529 46.9279 45.5727 45.6427 45.5683C44.9089 45.5661 44.1752 45.5683 43.3381 45.5683Z" fill="white"/>
<path d="M46.9325 26.6153C48.2507 26.6153 49.4875 26.6439 50.7222 26.6043C51.3747 26.5824 51.579 26.8526 51.5571 27.4546C51.5329 28.1202 51.5461 28.7859 51.5505 29.4516C51.5549 29.9239 51.3615 30.1744 50.8562 30.1744C47.1829 30.1678 43.5119 30.1678 39.8386 30.1744C39.3487 30.1744 39.1136 29.9679 39.118 29.4779C39.1224 28.7442 39.1224 28.0082 39.118 27.2744C39.1158 26.7779 39.3531 26.6 39.8474 26.6065C41.5214 26.6263 43.1955 26.6153 44.9552 26.6153C45.1486 25.5762 45.3639 24.5546 45.5221 23.5264C45.6121 22.9442 45.8736 22.5664 46.4294 22.3555C47.4993 21.9512 48.5582 21.5162 49.6237 21.1032C50.2499 20.8615 50.7486 21.0505 50.988 21.5997C51.2209 22.1336 50.9771 22.7949 50.4081 23.0365C49.5666 23.3924 48.6922 23.6736 47.8618 24.0559C47.607 24.1745 47.3587 24.4887 47.2752 24.7633C47.1061 25.3279 47.0511 25.9255 46.9303 26.6153H46.9325Z" fill="white"/>
<path d="M32.4854 45.7969C35.3809 45.7969 38.2765 45.7925 41.1721 45.8035C41.4599 45.8035 41.7872 45.8452 42.0201 45.9902C42.2222 46.1176 42.4045 46.4032 42.4419 46.6427C42.5342 47.2337 40.9282 48.9934 40.3262 48.9934C35.0646 48.9978 29.8029 49.0044 24.539 48.978C24.2468 48.978 23.9019 48.7539 23.68 48.5365C23.3219 48.1871 22.999 47.7807 22.7507 47.3479C22.5859 47.0623 22.419 46.6053 22.5398 46.3769C22.687 46.1 23.1264 45.9616 23.4581 45.8057C23.5899 45.7441 23.7745 45.7947 23.9349 45.7947C26.7843 45.7947 29.6337 45.7947 32.4832 45.7947L32.4854 45.7969Z" fill="white"/>
<path d="M32.6458 39.2698C35.3788 39.2698 38.114 39.2698 40.847 39.2698C41.8027 39.2698 42.2355 39.6674 42.2487 40.5484C42.2618 41.4711 41.6884 42.0796 40.7855 42.0774C35.3415 42.0709 29.8975 42.0577 24.4512 42.0599C23.8713 42.0599 23.3945 41.9346 23.1704 41.3525C22.9332 40.7395 22.9156 40.1002 23.3989 39.6169C23.6208 39.395 24.0426 39.2851 24.3744 39.2807C27.1315 39.2544 29.8887 39.2654 32.6436 39.2676L32.6458 39.2698Z" fill="white"/>
<path d="M23.0693 44.9708C23.2209 43.8547 23.8449 43.2242 24.7939 42.9452C26.0001 42.5893 27.059 42.8859 27.9268 43.9009C28.5375 43.1956 29.2911 42.7958 30.205 42.8046C31.0992 42.8134 31.8417 43.1891 32.4459 43.925C33.0544 43.1934 33.8058 42.7914 34.7263 42.8046C35.6161 42.8178 36.3586 43.1912 36.9496 43.8965C37.8767 42.8617 38.9774 42.5475 40.2604 43.0155C41.148 43.3384 41.695 43.958 41.818 44.9686C41.1436 44.984 40.5174 45.252 40.0583 44.3974C39.7024 43.7317 38.5402 43.8503 38.2128 44.5534C38.0041 45.0015 37.7339 45.0257 37.356 45.0125C37.0573 45.0015 36.7585 44.9949 36.4597 45.0125C36.1104 45.0345 35.9039 44.9444 35.7127 44.5907C35.2733 43.7778 34.109 43.7581 33.6915 44.5709C33.4872 44.9686 33.2631 45.0301 32.9006 45.0103C32.626 44.9949 32.3492 44.9949 32.0746 45.0103C31.6682 45.0345 31.3957 44.9708 31.1651 44.5314C30.7762 43.791 29.5899 43.7756 29.2208 44.5116C28.9747 44.9993 28.6693 45.0345 28.2409 45.0125C27.9421 44.9971 27.6324 45.0586 27.349 44.9927C27.1315 44.9422 26.8744 44.7972 26.7558 44.6149C26.2857 43.8899 25.1586 43.7075 24.8027 44.4303C24.4776 45.0894 24.0294 45.0015 23.5241 45.0059C23.3901 45.0059 23.2561 44.9861 23.0715 44.9708H23.0693Z" fill="white"/>
</g>
</g>
<defs>
<filter id="filter0_d_56_384" x="0.5" y="0.5" width="73" height="73" filterUnits="userSpaceOnUse" color-interpolation-filters="sRGB">
<feFlood flood-opacity="0" result="BackgroundImageFix"/>
<feColorMatrix in="SourceAlpha" type="matrix" values="0 0 0 0 0 0 0 0 0 0 0 0 0 0 0 0 0 0 127 0" result="hardAlpha"/>
<feOffset dy="2"/>
<feGaussianBlur stdDeviation="2"/>
<feComposite in2="hardAlpha" operator="out"/>
<feColorMatrix type="matrix" values="0 0 0 0 0 0 0 0 0 0 0 0 0 0 0 0 0 0 0.25 0"/>
<feBlend mode="normal" in2="BackgroundImageFix" result="effect1_dropShadow_56_384"/>
<feBlend mode="normal" in="SourceGraphic" in2="effect1_dropShadow_56_384" result="shape"/>
</filter>
<clipPath id="clip0_56_384">
<rect width="29.1182" height="28" fill="white" transform="translate(22.4409 21)"/>
</clipPath>
</defs>
</svg>
