<svg width="74" height="74" viewBox="0 0 74 74" fill="none" xmlns="http://www.w3.org/2000/svg">
<g filter="url(#filter0_d_56_396)">
<rect x="7.33325" y="5" width="60" height="60" rx="30" fill="white"/>
<rect x="7.33325" y="5" width="60" height="60" rx="30" stroke="#E59182" stroke-width="5"/>
<path d="M39.4933 29.5093L42.1146 26.8867C41.8045 26.5766 41.5756 26.1949 41.4482 25.7753C41.3209 25.3557 41.2989 24.9111 41.3844 24.481C41.4699 24.0509 41.6601 23.6485 41.9382 23.3095C42.2164 22.9704 42.5738 22.7052 42.9789 22.5373C43.384 22.3694 43.8243 22.304 44.2607 22.3469C44.6971 22.3898 45.1162 22.5396 45.4809 22.7831C45.8456 23.0267 46.1446 23.3564 46.3514 23.7431C46.5582 24.1298 46.6665 24.5615 46.6666 25C47.1052 24.9997 47.5372 25.1076 47.9241 25.3141C48.3111 25.5207 48.6411 25.8195 48.885 26.1841C49.1289 26.5486 49.2791 26.9678 49.3222 27.4043C49.3654 27.8408 49.3002 28.2812 49.1325 28.6865C48.9647 29.0918 48.6996 29.4494 48.3606 29.7277C48.0216 30.0061 47.6191 30.1965 47.1889 30.2821C46.7587 30.3677 46.314 30.3458 45.8943 30.2185C45.4746 30.0911 45.0927 29.8622 44.7826 29.552L42.3559 31.98M31.3333 39.6667L32.6666 41M29.2053 43.128C32.8493 46.7733 37.0719 48.4613 38.6319 46.9C40.1946 45.3373 38.5066 41.116 34.8613 37.472C31.2173 33.8267 26.9946 32.1387 25.4346 33.7C23.8719 35.2627 25.5599 39.484 29.2053 43.128Z" stroke="#D18578" stroke-width="2" stroke-linecap="round" stroke-linejoin="round"/>
<path d="M38.6332 46.9C43.8399 41.692 45.1066 34.516 41.4612 30.872C37.8172 27.2267 30.6412 28.4933 25.4346 33.7" stroke="#D18578" stroke-width="2" stroke-linecap="round" stroke-linejoin="round"/>
</g>
<defs>
<filter id="filter0_d_56_396" x="0.833252" y="0.5" width="73" height="73" filterUnits="userSpaceOnUse" color-interpolation-filters="sRGB">
<feFlood flood-opacity="0" result="BackgroundImageFix"/>
<feColorMatrix in="SourceAlpha" type="matrix" values="0 0 0 0 0 0 0 0 0 0 0 0 0 0 0 0 0 0 127 0" result="hardAlpha"/>
<feOffset dy="2"/>
<feGaussianBlur stdDeviation="2"/>
<feComposite in2="hardAlpha" operator="out"/>
<feColorMatrix type="matrix" values="0 0 0 0 0 0 0 0 0 0 0 0 0 0 0 0 0 0 0.25 0"/>
<feBlend mode="normal" in2="BackgroundImageFix" result="effect1_dropShadow_56_396"/>
<feBlend mode="normal" in="SourceGraphic" in2="effect1_dropShadow_56_396" result="shape"/>
</filter>
</defs>
</svg>
