<svg width="74" height="74" viewBox="0 0 74 74" fill="none" xmlns="http://www.w3.org/2000/svg">
<g filter="url(#filter0_d_56_407)">
<rect x="7" y="5" width="60" height="60" rx="30" fill="white"/>
<rect x="7" y="5" width="60" height="60" rx="30" stroke="#E59182" stroke-width="5"/>
<path d="M25.3333 46.6667L41.6666 30.3334M41.6666 30.3334H43.9999C45.2376 30.3334 46.4246 29.8417 47.2998 28.9665C48.1749 28.0914 48.6666 26.9044 48.6666 25.6667V23.3334H46.3333C45.0956 23.3334 43.9086 23.825 43.0334 24.7002C42.1583 25.5754 41.6666 26.7624 41.6666 28V30.3334ZM27.0483 35.6184L28.8333 33.8334L30.6183 35.6184C31.3806 36.3837 31.8086 37.4199 31.8086 38.5C31.8086 39.5802 31.3806 40.6164 30.6183 41.3817L28.8333 43.1667L27.0483 41.3817C26.286 40.6164 25.8579 39.5802 25.8579 38.5C25.8579 37.4199 26.286 36.3837 27.0483 35.6184ZM31.7149 30.9517L33.4999 29.1667L35.2849 30.9517C36.0472 31.717 36.4752 32.7532 36.4752 33.8334C36.4752 34.9136 36.0472 35.9497 35.2849 36.715L33.4999 38.5L31.7149 36.715C30.9526 35.9497 30.5246 34.9136 30.5246 33.8334C30.5246 32.7532 30.9526 31.717 31.7149 30.9517ZM36.3816 26.285L38.1666 24.5L39.9516 26.285C40.7139 27.0503 41.1419 28.0865 41.1419 29.1667C41.1419 30.2469 40.7139 31.2831 39.9516 32.0484L38.1666 33.8334L36.3816 32.0484C35.6193 31.2831 35.1913 30.2469 35.1913 29.1667C35.1913 28.0865 35.6193 27.0503 36.3816 26.285Z" stroke="#D18578" stroke-width="2" stroke-linecap="round" stroke-linejoin="round"/>
<path d="M36.3816 41.3817L38.1666 43.1667L36.3816 44.9517C35.6163 45.714 34.5801 46.142 33.4999 46.142C32.4197 46.142 31.3836 45.714 30.6183 44.9517L28.8333 43.1667L30.6183 41.3817C31.3836 40.6194 32.4197 40.1914 33.4999 40.1914C34.5801 40.1914 35.6163 40.6194 36.3816 41.3817ZM41.0483 36.715L42.8333 38.5L41.0483 40.285C40.2829 41.0473 39.2468 41.4753 38.1666 41.4753C37.0864 41.4753 36.0502 41.0473 35.2849 40.285L33.4999 38.5L35.2849 36.715C36.0502 35.9527 37.0864 35.5247 38.1666 35.5247C39.2468 35.5247 40.2829 35.9527 41.0483 36.715ZM45.7149 32.0483L47.4999 33.8333L45.7149 35.6183C44.9496 36.3806 43.9134 36.8086 42.8333 36.8086C41.7531 36.8086 40.7169 36.3806 39.9516 35.6183L38.1666 33.8333L39.9516 32.0483C40.7169 31.286 41.7531 30.858 42.8333 30.858C43.9134 30.858 44.9496 31.286 45.7149 32.0483Z" stroke="#D18578" stroke-width="2" stroke-linecap="round" stroke-linejoin="round"/>
</g>
<defs>
<filter id="filter0_d_56_407" x="0.5" y="0.5" width="73" height="73" filterUnits="userSpaceOnUse" color-interpolation-filters="sRGB">
<feFlood flood-opacity="0" result="BackgroundImageFix"/>
<feColorMatrix in="SourceAlpha" type="matrix" values="0 0 0 0 0 0 0 0 0 0 0 0 0 0 0 0 0 0 127 0" result="hardAlpha"/>
<feOffset dy="2"/>
<feGaussianBlur stdDeviation="2"/>
<feComposite in2="hardAlpha" operator="out"/>
<feColorMatrix type="matrix" values="0 0 0 0 0 0 0 0 0 0 0 0 0 0 0 0 0 0 0.25 0"/>
<feBlend mode="normal" in2="BackgroundImageFix" result="effect1_dropShadow_56_407"/>
<feBlend mode="normal" in="SourceGraphic" in2="effect1_dropShadow_56_407" result="shape"/>
</filter>
</defs>
</svg>
