<svg width="74" height="74" viewBox="0 0 74 74" fill="none" xmlns="http://www.w3.org/2000/svg">
<g filter="url(#filter0_d_48_838)">
<rect x="7" y="5" width="60" height="60" rx="30" fill="#7E76A1"/>
<rect x="7" y="5" width="60" height="60" rx="30" stroke="white" stroke-width="5"/>
<path d="M26.5 42V36.1666C26.5 35.5478 26.7458 34.9543 27.1834 34.5167C27.621 34.0791 28.2145 33.8333 28.8333 33.8333V30.3333C28.8333 29.0956 29.325 27.9086 30.2002 27.0335C31.0753 26.1583 32.2623 25.6666 33.5 25.6666H40.5C41.7377 25.6666 42.9247 26.1583 43.7998 27.0335C44.675 27.9086 45.1667 29.0956 45.1667 30.3333V33.8333C45.7855 33.8333 46.379 34.0791 46.8166 34.5167C47.2542 34.9543 47.5 35.5478 47.5 36.1666V42C47.5 42.6188 47.2542 43.2123 46.8166 43.6499C46.379 44.0875 45.7855 44.3333 45.1667 44.3333C44.5478 44.3333 43.9543 44.0875 43.5168 43.6499C43.0792 43.2123 42.8333 42.6188 42.8333 42H31.1667C31.1667 42.6188 30.9208 43.2123 30.4832 43.6499C30.0457 44.0875 29.4522 44.3333 28.8333 44.3333C28.2145 44.3333 27.621 44.0875 27.1834 43.6499C26.7458 43.2123 26.5 42.6188 26.5 42ZM33.5 28C32.8812 28 32.2877 28.2458 31.8501 28.6834C31.4125 29.121 31.1667 29.7145 31.1667 30.3333V33.8333H42.8333V30.3333C42.8333 29.7145 42.5875 29.121 42.1499 28.6834C41.7123 28.2458 41.1188 28 40.5 28H33.5ZM30 38.5C30.3094 38.5 30.6062 38.377 30.825 38.1582C31.0437 37.9395 31.1667 37.6427 31.1667 37.3333C31.1667 37.0239 31.0437 36.7271 30.825 36.5083C30.6062 36.2895 30.3094 36.1666 30 36.1666C29.6906 36.1666 29.3938 36.2895 29.175 36.5083C28.9562 36.7271 28.8333 37.0239 28.8333 37.3333C28.8333 37.6427 28.9562 37.9395 29.175 38.1582C29.3938 38.377 29.6906 38.5 30 38.5ZM44 38.5C44.3094 38.5 44.6062 38.377 44.825 38.1582C45.0438 37.9395 45.1667 37.6427 45.1667 37.3333C45.1667 37.0239 45.0438 36.7271 44.825 36.5083C44.6062 36.2895 44.3094 36.1666 44 36.1666C43.6906 36.1666 43.3938 36.2895 43.175 36.5083C42.9562 36.7271 42.8333 37.0239 42.8333 37.3333C42.8333 37.6427 42.9562 37.9395 43.175 38.1582C43.3938 38.377 43.6906 38.5 44 38.5Z" fill="white"/>
</g>
<defs>
<filter id="filter0_d_48_838" x="0.5" y="0.5" width="73" height="73" filterUnits="userSpaceOnUse" color-interpolation-filters="sRGB">
<feFlood flood-opacity="0" result="BackgroundImageFix"/>
<feColorMatrix in="SourceAlpha" type="matrix" values="0 0 0 0 0 0 0 0 0 0 0 0 0 0 0 0 0 0 127 0" result="hardAlpha"/>
<feOffset dy="2"/>
<feGaussianBlur stdDeviation="2"/>
<feComposite in2="hardAlpha" operator="out"/>
<feColorMatrix type="matrix" values="0 0 0 0 0 0 0 0 0 0 0 0 0 0 0 0 0 0 0.25 0"/>
<feBlend mode="normal" in2="BackgroundImageFix" result="effect1_dropShadow_48_838"/>
<feBlend mode="normal" in="SourceGraphic" in2="effect1_dropShadow_48_838" result="shape"/>
</filter>
</defs>
</svg>
