<svg width="74" height="73" viewBox="0 0 74 73" fill="none" xmlns="http://www.w3.org/2000/svg">
<g filter="url(#filter0_d_331_83)">
<rect x="7" y="4.5" width="60" height="60" rx="30" fill="white"/>
<rect x="7" y="4.5" width="60" height="60" rx="30" stroke="#7E76A1" stroke-width="5"/>
<path d="M31.8864 30.664L35.6256 27.948C36.0454 27.6408 36.5559 27.4831 37.0758 27.5C37.7099 27.5158 38.3233 27.7288 38.8307 28.1093C39.3382 28.4899 39.7145 29.0191 39.9073 29.6233C40.1243 30.3035 40.3226 30.7632 40.5023 31.0012C41.045 31.7257 41.7492 32.3136 42.5588 32.7185C43.3685 33.1233 44.2614 33.3338 45.1666 33.3333V35.6667C43.962 35.6678 42.7721 35.4019 41.6825 34.8881C40.593 34.3743 39.6309 33.6253 38.8654 32.6952L38.0511 37.3105L40.4556 39.3277L43.0491 46.4537L40.8558 47.2517L38.4769 40.7137L34.5219 37.3945C34.1972 37.1325 33.9486 36.7883 33.8021 36.3976C33.6556 36.0069 33.6165 35.5841 33.6889 35.1732L34.2828 31.8073L33.4929 32.3813L31.0114 35.7973L29.1238 34.4253L31.8666 30.65L31.8864 30.664ZM38.7499 26.9167C38.1311 26.9167 37.5376 26.6708 37.1 26.2332C36.6624 25.7957 36.4166 25.2022 36.4166 24.5833C36.4166 23.9645 36.6624 23.371 37.1 22.9334C37.5376 22.4958 38.1311 22.25 38.7499 22.25C39.3688 22.25 39.9623 22.4958 40.3999 22.9334C40.8374 23.371 41.0833 23.9645 41.0833 24.5833C41.0833 25.2022 40.8374 25.7957 40.3999 26.2332C39.9623 26.6708 39.3688 26.9167 38.7499 26.9167ZM35.2849 42.2945L31.5353 46.7628L29.7479 45.2637L33.2188 41.1267L34.0891 38.5833L36.1786 40.3333L35.2849 42.2945Z" fill="#7E76A1"/>
</g>
<defs>
<filter id="filter0_d_331_83" x="0.5" y="0" width="73" height="73" filterUnits="userSpaceOnUse" color-interpolation-filters="sRGB">
<feFlood flood-opacity="0" result="BackgroundImageFix"/>
<feColorMatrix in="SourceAlpha" type="matrix" values="0 0 0 0 0 0 0 0 0 0 0 0 0 0 0 0 0 0 127 0" result="hardAlpha"/>
<feOffset dy="2"/>
<feGaussianBlur stdDeviation="2"/>
<feComposite in2="hardAlpha" operator="out"/>
<feColorMatrix type="matrix" values="0 0 0 0 0 0 0 0 0 0 0 0 0 0 0 0 0 0 0.25 0"/>
<feBlend mode="normal" in2="BackgroundImageFix" result="effect1_dropShadow_331_83"/>
<feBlend mode="normal" in="SourceGraphic" in2="effect1_dropShadow_331_83" result="shape"/>
</filter>
</defs>
</svg>
